<?xml version="1.0" standalone="no"?>
<!DOCTYPE svg PUBLIC "-//W3C//DTD SVG 20010904//EN"
 "http://www.w3.org/TR/2001/REC-SVG-20010904/DTD/svg10.dtd">
<svg version="1.0" xmlns="http://www.w3.org/2000/svg"
 width="520.000000pt" height="520.000000pt" viewBox="0 0 520.000000 520.000000"
 preserveAspectRatio="xMidYMid meet">
<metadata>
Created by potrace 1.11, written by Peter Selinger 2001-2013
</metadata>
<g transform="translate(0.000000,520.000000) scale(0.100000,-0.100000)"
fill="#000000" stroke="none">
<path d="M2451 5184 c-88 -18 -145 -47 -461 -231 -151 -88 -295 -171 -320
-185 -96 -55 -918 -532 -1087 -631 -167 -99 -246 -188 -301 -338 l-27 -74 -3
-623 -3 -623 23 12 c13 7 73 40 133 74 61 34 130 73 155 87 25 14 187 105 360
203 173 98 340 191 370 208 30 16 84 47 120 67 36 21 88 50 115 65 57 32 138
78 275 155 153 86 222 125 275 155 28 15 125 70 216 121 196 111 233 125 319
126 90 1 137 -18 311 -127 83 -52 153 -95 154 -95 2 0 47 -28 101 -62 73 -46
108 -62 134 -62 27 0 103 40 340 178 168 98 319 186 335 196 120 69 166 96
205 121 86 54 209 69 310 39 118 -35 225 -171 234 -299 10 -136 -72 -283 -198
-354 -65 -37 -205 -119 -561 -327 -524 -306 -528 -309 -591 -323 -82 -18 -169
-7 -241 29 -32 16 -161 94 -287 172 -135 84 -239 142 -254 142 -14 0 -138 -64
-276 -141 -314 -177 -332 -187 -381 -214 -22 -12 -164 -92 -315 -177 -151 -85
-295 -166 -320 -180 -36 -20 -251 -141 -477 -269 -36 -21 -84 -47 -163 -92
-19 -11 -116 -65 -215 -120 -99 -55 -186 -104 -193 -110 -15 -12 -15 -141 1
-216 19 -93 80 -204 153 -278 59 -59 104 -89 319 -212 138 -79 270 -155 295
-169 25 -14 104 -59 175 -100 72 -41 146 -84 165 -95 19 -11 172 -98 340 -195
168 -96 325 -186 350 -200 25 -14 50 -28 55 -32 6 -4 35 -21 65 -37 30 -16 80
-44 110 -61 105 -59 269 -84 396 -61 70 13 144 44 264 113 58 32 125 70 150
84 25 14 178 100 340 192 162 92 318 180 345 195 28 16 151 85 275 155 124 70
245 138 270 152 335 187 384 219 468 315 60 66 125 193 141 271 18 85 15 2161
-3 2227 -50 189 -169 320 -411 451 -83 45 -1001 574 -1042 600 -29 19 -55 34
-59 34 -3 0 -63 33 -132 74 -70 40 -143 83 -162 93 -19 11 -78 45 -130 75
-135 78 -188 104 -254 123 -74 22 -213 26 -295 9z m247 -3074 c34 -22 65 -40
67 -40 3 0 36 -20 75 -45 39 -25 72 -45 74 -45 3 0 48 -27 101 -60 53 -33 98
-60 100 -60 2 0 47 -27 100 -60 53 -33 98 -60 101 -60 2 0 34 -20 71 -43 38
-24 73 -46 78 -48 48 -20 277 -168 281 -183 6 -19 -13 -66 -27 -66 -4 0 -160
-92 -346 -205 -186 -113 -345 -209 -353 -212 -8 -4 -57 -33 -108 -65 -51 -32
-95 -58 -97 -58 -2 0 -41 -24 -87 -52 -133 -84 -106 -92 -543 171 -203 123
-386 233 -406 245 -182 106 -319 193 -324 204 -16 42 4 56 558 389 440 265
559 332 587 332 24 1 55 -12 98 -39z"/>
</g>
</svg>
