<?xml version="1.0" encoding="UTF-8" standalone="no"?>
<svg width="116px" height="116px" viewBox="0 0 116 116" version="1.1" xmlns="http://www.w3.org/2000/svg" xmlns:xlink="http://www.w3.org/1999/xlink" xmlns:sketch="http://www.bohemiancoding.com/sketch/ns">
    <!-- Generator: Sketch 3.3.2 (12043) - http://www.bohemiancoding.com/sketch -->
    <title>y46</title>
    <desc>Created with Sketch.</desc>
    <defs></defs>
    <g id="Page-1" stroke="none" stroke-width="1" fill="none" fill-rule="evenodd" sketch:type="MSPage">
        <g id="y46" sketch:type="MSLayerGroup">
            <path d="M0,0 L116,0 L116,116 L0,116 L0,0 Z" id="Fill-183" fill="#ECF0F1" sketch:type="MSShapeGroup"></path>
            <path d="M0,0 L116,0 L116,24 L0,24 L0,0 Z" id="Fill-184" fill="#546A79" sketch:type="MSShapeGroup"></path>
            <path d="M18,12 C18,15.314 15.314,18 12,18 C8.686,18 6,15.314 6,12 C6,8.686 8.686,6 12,6 C15.314,6 18,8.686 18,12" id="Fill-185" fill="#ED7161" sketch:type="MSShapeGroup"></path>
            <path d="M36,12 C36,15.314 33.314,18 30,18 C26.686,18 24,15.314 24,12 C24,8.686 26.686,6 30,6 C33.314,6 36,8.686 36,12" id="Fill-186" fill="#F0C419" sketch:type="MSShapeGroup"></path>
            <path d="M54,12 C54,15.314 51.314,18 48,18 C44.686,18 42,15.314 42,12 C42,8.686 44.686,6 48,6 C51.314,6 54,8.686 54,12" id="Fill-187" fill="#4FBA6F" sketch:type="MSShapeGroup"></path>
            <path d="M0,24 L14,24 L14,116 L0,116 L0,24 Z" id="Fill-309" fill="#95A5A5" sketch:type="MSShapeGroup"></path>
            <path d="M6,36 L8,36 C9.106,36 10,35.106 10,34 C10,32.894 9.106,32 8,32 L6,32 C4.894,32 4,32.894 4,34 C4,35.106 4.894,36 6,36" id="Fill-310" fill="#BDC3C7" sketch:type="MSShapeGroup"></path>
            <path d="M8,40 L6,40 C4.894,40 4,40.894 4,42 C4,43.106 4.894,44 6,44 L8,44 C9.106,44 10,43.106 10,42 C10,40.894 9.106,40 8,40" id="Fill-311" fill="#BDC3C7" sketch:type="MSShapeGroup"></path>
            <path d="M8,48 L6,48 C4.894,48 4,48.894 4,50 C4,51.106 4.894,52 6,52 L8,52 C9.106,52 10,51.106 10,50 C10,48.894 9.106,48 8,48" id="Fill-312" fill="#BDC3C7" sketch:type="MSShapeGroup"></path>
            <path d="M8,56 L6,56 C4.894,56 4,56.894 4,58 C4,59.106 4.894,60 6,60 L8,60 C9.106,60 10,59.106 10,58 C10,56.894 9.106,56 8,56" id="Fill-313" fill="#BDC3C7" sketch:type="MSShapeGroup"></path>
            <path d="M8,64 L6,64 C4.894,64 4,64.894 4,66 C4,67.106 4.894,68 6,68 L8,68 C9.106,68 10,67.106 10,66 C10,64.894 9.106,64 8,64" id="Fill-314" fill="#BDC3C7" sketch:type="MSShapeGroup"></path>
            <path d="M8,72 L6,72 C4.894,72 4,72.894 4,74 C4,75.106 4.894,76 6,76 L8,76 C9.106,76 10,75.106 10,74 C10,72.894 9.106,72 8,72" id="Fill-315" fill="#BDC3C7" sketch:type="MSShapeGroup"></path>
            <path d="M8,80 L6,80 C4.894,80 4,80.894 4,82 C4,83.106 4.894,84 6,84 L8,84 C9.106,84 10,83.106 10,82 C10,80.894 9.106,80 8,80" id="Fill-316" fill="#BDC3C7" sketch:type="MSShapeGroup"></path>
            <path d="M8,88 L6,88 C4.894,88 4,88.894 4,90 C4,91.106 4.894,92 6,92 L8,92 C9.106,92 10,91.106 10,90 C10,88.894 9.106,88 8,88" id="Fill-317" fill="#BDC3C7" sketch:type="MSShapeGroup"></path>
            <path d="M8,96 L6,96 C4.894,96 4,96.894 4,98 C4,99.106 4.894,100 6,100 L8,100 C9.106,100 10,99.106 10,98 C10,96.894 9.106,96 8,96" id="Fill-318" fill="#BDC3C7" sketch:type="MSShapeGroup"></path>
            <path d="M8,104 L6,104 C4.894,104 4,104.894 4,106 C4,107.106 4.894,108 6,108 L8,108 C9.106,108 10,107.106 10,106 C10,104.894 9.106,104 8,104" id="Fill-319" fill="#BDC3C7" sketch:type="MSShapeGroup"></path>
            <path d="M50,36 L24,36 C22.894,36 22,35.106 22,34 C22,32.894 22.894,32 24,32 L50,32 C51.106,32 52,32.894 52,34 C52,35.106 51.106,36 50,36" id="Fill-324" fill="#8697CB" sketch:type="MSShapeGroup"></path>
            <path d="M78,36 L58,36 C56.894,36 56,35.106 56,34 C56,32.894 56.894,32 58,32 L78,32 C79.106,32 80,32.894 80,34 C80,35.106 79.106,36 78,36" id="Fill-325" fill="#F0C419" sketch:type="MSShapeGroup"></path>
            <path d="M90,36 L86,36 C84.894,36 84,35.106 84,34 C84,32.894 84.894,32 86,32 L90,32 C91.106,32 92,32.894 92,34 C92,35.106 91.106,36 90,36" id="Fill-326" fill="#4FBA6F" sketch:type="MSShapeGroup"></path>
            <path d="M100,44 L70,44 C68.894,44 68,43.106 68,42 C68,40.894 68.894,40 70,40 L100,40 C101.106,40 102,40.894 102,42 C102,43.106 101.106,44 100,44" id="Fill-327" fill="#8697CB" sketch:type="MSShapeGroup"></path>
            <path d="M62,44 L34,44 C32.894,44 32,43.106 32,42 C32,40.894 32.894,40 34,40 L62,40 C63.106,40 64,40.894 64,42 C64,43.106 63.106,44 62,44" id="Fill-328" fill="#E64C3C" sketch:type="MSShapeGroup"></path>
            <path d="M26,44 L24,44 C22.894,44 22,43.106 22,42 C22,40.894 22.894,40 24,40 L26,40 C27.106,40 28,40.894 28,42 C28,43.106 27.106,44 26,44" id="Fill-329" fill="#E64C3C" sketch:type="MSShapeGroup"></path>
            <path d="M42,52 L24,52 C22.894,52 22,51.106 22,50 C22,48.894 22.894,48 24,48 L42,48 C43.106,48 44,48.894 44,50 C44,51.106 43.106,52 42,52" id="Fill-330" fill="#8697CB" sketch:type="MSShapeGroup"></path>
            <path d="M54,52 L50,52 C48.894,52 48,51.106 48,50 C48,48.894 48.894,48 50,48 L54,48 C55.106,48 56,48.894 56,50 C56,51.106 55.106,52 54,52" id="Fill-331" fill="#F0C419" sketch:type="MSShapeGroup"></path>
            <path d="M90,52 L62,52 C60.894,52 60,51.106 60,50 C60,48.894 60.894,48 62,48 L90,48 C91.106,48 92,48.894 92,50 C92,51.106 91.106,52 90,52" id="Fill-332" fill="#4FBA6F" sketch:type="MSShapeGroup"></path>
            <path d="M50,60 L24,60 C22.894,60 22,59.106 22,58 C22,56.894 22.894,56 24,56 L50,56 C51.106,56 52,56.894 52,58 C52,59.106 51.106,60 50,60" id="Fill-333" fill="#F0C419" sketch:type="MSShapeGroup"></path>
            <path d="M78,60 L58,60 C56.894,60 56,59.106 56,58 C56,56.894 56.894,56 58,56 L78,56 C79.106,56 80,56.894 80,58 C80,59.106 79.106,60 78,60" id="Fill-334" fill="#4FBA6F" sketch:type="MSShapeGroup"></path>
            <path d="M86,68 L70,68 C68.894,68 68,67.106 68,66 C68,64.894 68.894,64 70,64 L86,64 C87.106,64 88,64.894 88,66 C88,67.106 87.106,68 86,68" id="Fill-335" fill="#F0C419" sketch:type="MSShapeGroup"></path>
            <path d="M62,68 L34,68 C32.894,68 32,67.106 32,66 C32,64.894 32.894,64 34,64 L62,64 C63.106,64 64,64.894 64,66 C64,67.106 63.106,68 62,68" id="Fill-336" fill="#8697CB" sketch:type="MSShapeGroup"></path>
            <path d="M26,68 L24,68 C22.894,68 22,67.106 22,66 C22,64.894 22.894,64 24,64 L26,64 C27.106,64 28,64.894 28,66 C28,67.106 27.106,68 26,68" id="Fill-337" fill="#4FBA6F" sketch:type="MSShapeGroup"></path>
            <path d="M42,76 L24,76 C22.894,76 22,75.106 22,74 C22,72.894 22.894,72 24,72 L42,72 C43.106,72 44,72.894 44,74 C44,75.106 43.106,76 42,76" id="Fill-338" fill="#F0C419" sketch:type="MSShapeGroup"></path>
            <path d="M54,76 L50,76 C48.894,76 48,75.106 48,74 C48,72.894 48.894,72 50,72 L54,72 C55.106,72 56,72.894 56,74 C56,75.106 55.106,76 54,76" id="Fill-339" fill="#8697CB" sketch:type="MSShapeGroup"></path>
            <path d="M92,76 L62,76 C60.894,76 60,75.106 60,74 C60,72.894 60.894,72 62,72 L92,72 C93.106,72 94,72.894 94,74 C94,75.106 93.106,76 92,76" id="Fill-340" fill="#E64C3C" sketch:type="MSShapeGroup"></path>
            <path d="M50,84 L24,84 C22.894,84 22,83.106 22,82 C22,80.894 22.894,80 24,80 L50,80 C51.106,80 52,80.894 52,82 C52,83.106 51.106,84 50,84" id="Fill-341" fill="#8697CB" sketch:type="MSShapeGroup"></path>
            <path d="M78,84 L58,84 C56.894,84 56,83.106 56,82 C56,80.894 56.894,80 58,80 L78,80 C79.106,80 80,80.894 80,82 C80,83.106 79.106,84 78,84" id="Fill-342" fill="#4FBA6F" sketch:type="MSShapeGroup"></path>
            <path d="M100,84 L86,84 C84.894,84 84,83.106 84,82 C84,80.894 84.894,80 86,80 L100,80 C101.106,80 102,80.894 102,82 C102,83.106 101.106,84 100,84" id="Fill-343" fill="#E64C3C" sketch:type="MSShapeGroup"></path>
            <path d="M78,92 L70,92 C68.894,92 68,91.106 68,90 C68,88.894 68.894,88 70,88 L78,88 C79.106,88 80,88.894 80,90 C80,91.106 79.106,92 78,92" id="Fill-344" fill="#8697CB" sketch:type="MSShapeGroup"></path>
            <path d="M62,92 L34,92 C32.894,92 32,91.106 32,90 C32,88.894 32.894,88 34,88 L62,88 C63.106,88 64,88.894 64,90 C64,91.106 63.106,92 62,92" id="Fill-345" fill="#E64C3C" sketch:type="MSShapeGroup"></path>
            <path d="M26,92 L24,92 C22.894,92 22,91.106 22,90 C22,88.894 22.894,88 24,88 L26,88 C27.106,88 28,88.894 28,90 C28,91.106 27.106,92 26,92" id="Fill-346" fill="#F0C419" sketch:type="MSShapeGroup"></path>
            <path d="M42,100 L24,100 C22.894,100 22,99.106 22,98 C22,96.894 22.894,96 24,96 L42,96 C43.106,96 44,96.894 44,98 C44,99.106 43.106,100 42,100" id="Fill-347" fill="#4FBA6F" sketch:type="MSShapeGroup"></path>
            <path d="M54,100 L50,100 C48.894,100 48,99.106 48,98 C48,96.894 48.894,96 50,96 L54,96 C55.106,96 56,96.894 56,98 C56,99.106 55.106,100 54,100" id="Fill-348" fill="#8697CB" sketch:type="MSShapeGroup"></path>
            <path d="M76,100 L62,100 C60.894,100 60,99.106 60,98 C60,96.894 60.894,96 62,96 L76,96 C77.106,96 78,96.894 78,98 C78,99.106 77.106,100 76,100" id="Fill-349" fill="#E64C3C" sketch:type="MSShapeGroup"></path>
            <path d="M86,100 L84,100 C82.894,100 82,99.106 82,98 C82,96.894 82.894,96 84,96 L86,96 C87.106,96 88,96.894 88,98 C88,99.106 87.106,100 86,100" id="Fill-350" fill="#F0C419" sketch:type="MSShapeGroup"></path>
        </g>
    </g>
</svg>