<?xml version="1.0" encoding="UTF-8" standalone="no"?>
<svg width="90px" height="116px" viewBox="0 0 90 116" version="1.1" xmlns="http://www.w3.org/2000/svg" xmlns:xlink="http://www.w3.org/1999/xlink" xmlns:sketch="http://www.bohemiancoding.com/sketch/ns">
    <!-- Generator: Sketch 3.3.2 (12043) - http://www.bohemiancoding.com/sketch -->
    <title>g336</title>
    <desc>Created with Sketch.</desc>
    <defs></defs>
    <g id="Page-1" stroke="none" stroke-width="1" fill="none" fill-rule="evenodd" sketch:type="MSPage">
        <g id="g336" sketch:type="MSLayerGroup">
            <path d="M90,28 L62,0 L0,0 L0,116 L90,116 L90,28" id="Fill-1633" fill="#EDEBDA" sketch:type="MSShapeGroup"></path>
            <path d="M62,0 L62,28 L90,28 L62,0" id="Fill-2193" fill="#CEC9AE" sketch:type="MSShapeGroup"></path>
            <path d="M18,32 L36,32 C37.106,32 38,31.106 38,30 C38,28.896 37.106,28 36,28 L18,28 C16.894,28 16,28.896 16,30 C16,31.106 16.894,32 18,32" id="Fill-2194" fill="#CEC9AE" sketch:type="MSShapeGroup"></path>
            <path d="M18,48 L28,48 C29.106,48 30,47.106 30,46 C30,44.894 29.106,44 28,44 L18,44 C16.894,44 16,44.894 16,46 C16,47.106 16.894,48 18,48" id="Fill-2195" fill="#CEC9AE" sketch:type="MSShapeGroup"></path>
            <path d="M62,44 L48,44 C46.894,44 46,44.894 46,46 C46,47.106 46.894,48 48,48 L62,48 C63.106,48 64,47.106 64,46 C64,44.894 63.106,44 62,44" id="Fill-2196" fill="#CEC9AE" sketch:type="MSShapeGroup"></path>
            <path d="M36.58,44.6 C36.2,44.958 36,45.478 36,46 C36,46.52 36.2,47.04 36.58,47.42 C36.958,47.78 37.48,48 38,48 C38.52,48 39.038,47.798 39.42,47.4 C39.78,47.04 40,46.52 40,46 C40,45.478 39.78,44.958 39.42,44.58 C38.66,43.84 37.32,43.84 36.58,44.6" id="Fill-2197" fill="#CEC9AE" sketch:type="MSShapeGroup"></path>
            <path d="M73.42,44.58 C72.66,43.84 71.34,43.84 70.58,44.58 C70.218,44.958 70,45.478 70,46 C70,46.52 70.218,47.04 70.58,47.42 C70.958,47.78 71.48,48 72,48 C72.52,48 73.038,47.78 73.42,47.42 C73.78,47.04 74,46.52 74,46 C74,45.478 73.78,44.958 73.42,44.58" id="Fill-2198" fill="#CEC9AE" sketch:type="MSShapeGroup"></path>
            <path d="M42,60 L28,60 C26.894,60 26,60.894 26,62 C26,63.106 26.894,64 28,64 L42,64 C43.106,64 44,63.106 44,62 C44,60.894 43.106,60 42,60" id="Fill-2199" fill="#CEC9AE" sketch:type="MSShapeGroup"></path>
            <path d="M16.58,60.58 C16.2,60.96 16,61.458 16,62 C16,62.52 16.218,63.04 16.58,63.42 C16.958,63.78 17.48,64 18,64 C18.52,64 19.038,63.78 19.42,63.42 C19.798,63.04 20,62.52 20,62 C20,61.478 19.798,60.96 19.42,60.58 C18.66,59.84 17.34,59.84 16.58,60.58" id="Fill-2200" fill="#CEC9AE" sketch:type="MSShapeGroup"></path>
            <path d="M24.29,78.332 C19.906,80.614 18.434,84.974 17.896,89.496 C17.07,88.804 16.242,88.11 15.414,87.416 C13.452,85.772 10.606,88.586 12.586,90.244 C14.456,91.812 16.328,93.38 18.198,94.946 C19.522,96.056 21.55,95.37 21.612,93.532 C21.758,89.198 21.966,84.046 26.308,81.786 C28.598,80.596 26.574,77.144 24.29,78.332" id="Fill-2201" fill="#7383BF" sketch:type="MSShapeGroup"></path>
            <path d="M42.966,88.5 C41.926,86.64 39.682,85.716 37.59,86.31 C34.86,87.082 31.628,90.394 29.718,86.522 C28.576,84.208 25.128,86.236 26.264,88.54 C27.292,90.624 29.264,92.136 31.602,92.404 C32.818,92.542 33.836,92.378 34.978,91.952 C35.792,91.648 38.824,89.288 39.512,90.518 C40.77,92.77 44.226,90.754 42.966,88.5" id="Fill-2202" fill="#7383BF" sketch:type="MSShapeGroup"></path>
            <path d="M67.09,58.18 L67.09,58.18 C67.74,60.012 69.832,60.878 71.588,60.044 C74.374,58.718 77.282,61.626 75.956,64.414 C75.122,66.168 75.988,68.258 77.82,68.91 C80.726,69.944 80.726,74.056 77.82,75.09 C75.988,75.742 75.122,77.832 75.956,79.588 C77.282,82.374 74.374,85.282 71.588,83.958 C69.832,83.122 67.74,83.988 67.09,85.82 C66.056,88.728 61.944,88.728 60.91,85.82 C60.26,83.988 58.168,83.122 56.412,83.958 C53.626,85.282 50.718,82.374 52.044,79.588 C52.878,77.832 52.012,75.742 50.18,75.09 C47.274,74.056 47.274,69.944 50.18,68.91 C52.012,68.258 52.878,66.168 52.044,64.414 C50.718,61.626 53.626,58.718 56.412,60.044 C58.168,60.878 60.26,60.012 60.91,58.18 C61.944,55.274 66.056,55.274 67.09,58.18" id="Fill-2203" fill="#ECBA16" sketch:type="MSShapeGroup"></path>
            <path d="M71.588,83.958 C69.832,83.122 67.74,83.988 67.09,85.82 C66.056,88.728 61.944,88.728 60.91,85.82 C60.26,83.988 58.168,83.122 56.412,83.958 C56.274,84.022 56.138,84.034 56,84.078 L56,106 L64,98 L72,106 L72,84.078 C71.862,84.034 71.724,84.022 71.588,83.958" id="Fill-2204" fill="#D75A4A" sketch:type="MSShapeGroup"></path>
        </g>
    </g>
</svg>