<?xml version="1.0" encoding="utf-8"?>
<!-- Generator: Adobe Illustrator 18.1.1, SVG Export Plug-In . SVG Version: 6.00 Build 0)  -->
<svg version="1.1" id="Layer_1" xmlns="http://www.w3.org/2000/svg" xmlns:xlink="http://www.w3.org/1999/xlink" x="0px" y="0px"
	 viewBox="0 792 612 663" enable-background="new 0 792 612 663" xml:space="preserve">
<g>
	<g>
		<defs>
			<path id="SVGID_1_" d="M340.4,1443.5L565,1317.3c23-14,41-39.5,41-67.6V996c0-28.1-18.1-52.3-41-65L341.8,802.2
				c-22.9-12.7-53.6-12.7-76.6,0L43.2,931C20.2,943.8,6,969.2,6,996v255c0,28,14.2,52.3,37.2,65l220.7,126.2
				C288,1456.3,317.5,1456.3,340.4,1443.5L340.4,1443.5z"/>
		</defs>
		<clipPath id="SVGID_2_">
			<use xlink:href="#SVGID_1_"  overflow="visible"/>
		</clipPath>
		
			<linearGradient id="right_1_" gradientUnits="userSpaceOnUse" x1="36" y1="57.0588" x2="36" y2="109.0588" gradientTransform="matrix(12.75 0 0 12.75 0 64.5)">
			<stop  offset="0" style="stop-color:#296AD4"/>
			<stop  offset="0.8239" style="stop-color:#296AD4"/>
		</linearGradient>
		<rect id="right" x="306" y="792" clip-path="url(#SVGID_2_)" fill="url(#right_1_)" width="306" height="663"/>
	</g>
	<g>
		<defs>
			<path id="SVGID_3_" d="M340.4,1443.5l224.4-126.2c23-14,41.2-39.5,41.2-67.6V996c0-28.1-18.3-52.3-41.2-65L341.7,802.2
				c-22.9-12.7-53.5-12.7-76.5,0L43.4,931C20.4,943.8,6,969.2,6,996v255c0,28,14.4,52.3,37.4,65L264,1442.2
				C288.1,1456.3,317.5,1456.3,340.4,1443.5L340.4,1443.5z"/>
		</defs>
		<clipPath id="SVGID_4_">
			<use xlink:href="#SVGID_3_"  overflow="visible"/>
		</clipPath>
		
			<linearGradient id="left_1_" gradientUnits="userSpaceOnUse" x1="12" y1="57.0588" x2="12" y2="109.0588" gradientTransform="matrix(12.75 0 0 12.75 0 64.5)">
			<stop  offset="0" style="stop-color:#4E8EF7"/>
			<stop  offset="0.3271" style="stop-color:#4484EE"/>
			<stop  offset="0.8824" style="stop-color:#296AD4"/>
			<stop  offset="0.8848" style="stop-color:#296AD4"/>
		</linearGradient>
		<rect id="left" y="792" clip-path="url(#SVGID_4_)" fill="url(#left_1_)" width="306" height="663"/>
	</g>
</g>
<g id="graph_1_">
	<g>
		<defs>
			<path id="SVGID_5_" d="M344.2,1443.5l222.9-126.2c23-14,38.9-39.5,38.9-67.6V996c0-28.1-14.8-52.3-38.9-65l-223-128.8
				c-22.9-12.7-52.1-12.7-76.3,0L44.6,929.7C21.7,942.5,6,967.9,6,994.7v255c0,28,15.7,52.3,38.6,65l223.2,128.8
				C292,1456.3,321.3,1456.3,344.2,1443.5L344.2,1443.5z"/>
		</defs>
		<clipPath id="SVGID_6_">
			<use xlink:href="#SVGID_5_"  overflow="visible"/>
		</clipPath>
		<path clip-path="url(#SVGID_6_)" fill="#FFFFFF" d="M-42.1,1262.5c-17.8,0-35.7-10.2-42.1-29.3c-7.6-20.4,2.6-43.3,21.7-54.8
			L285.6,982c14-7.6,31.9-7.6,45.9,1.3l58.6,37c3.8,2.6,8.9,2.6,12.8,0l108.4-63.8c21.7-12.8,51-5.1,62.5,17.9
			c11.5,21.7,1.3,48.4-19.1,59.9l-133.9,79c-14,8.9-34.4,8.9-48.4,0l-58.7-35.7c-3.8-2.6-8.9-2.6-12.8,0l-321.3,178.5
			C-26.8,1261.2-34.4,1262.5-42.1,1262.5z"/>
	</g>
</g>
<path id="diamond" fill="#FFFFFF" d="M448.8,1268.9l-136.4,81.6c-3.8,2.6-8.9,2.6-12.8,0l-136.4-81.6c-3.8-2.6-3.8-8.9,0-11.5
	l136.4-81.6c3.8-2.5,8.9-2.5,12.8,0l136.4,81.6C453.9,1261.2,453.9,1266.3,448.8,1268.9z"/>
</svg>
