<?xml version="1.0" encoding="utf-8"?>
<!-- Generator: Adobe Illustrator 18.1.1, SVG Export Plug-In . SVG Version: 6.00 Build 0)  -->
<svg version="1.1" id="Layer_1" xmlns="http://www.w3.org/2000/svg" xmlns:xlink="http://www.w3.org/1999/xlink" x="0px" y="0px"
	 viewBox="0 0 48 52" enable-background="new 0 0 48 52" xml:space="preserve">
<g>
	<g>
		<defs>
			<path id="SVGID_1_" d="M26.7,51.1l17.6-9.9c1.8-1.1,3.2-3.1,3.2-5.3V16c0-2.2-1.4-4.1-3.2-5.1L26.8,0.8c-1.8-1-4.2-1-6,0
				L3.4,10.9c-1.8,1-2.9,3-2.9,5.1v20c0,2.2,1.1,4.1,2.9,5.1l17.3,9.9C22.6,52.1,24.9,52.1,26.7,51.1L26.7,51.1z"/>
		</defs>
		<clipPath id="SVGID_2_">
			<use xlink:href="#SVGID_1_"  overflow="visible"/>
		</clipPath>
		<linearGradient id="right_1_" gradientUnits="userSpaceOnUse" x1="36" y1="-5.384209e-10" x2="36" y2="52">
			<stop  offset="0" style="stop-color:#296AD4"/>
			<stop  offset="0.8239" style="stop-color:#296AD4"/>
		</linearGradient>
		<rect id="right" x="24" clip-path="url(#SVGID_2_)" fill="url(#right_1_)" width="24" height="52"/>
		<linearGradient id="left_1_" gradientUnits="userSpaceOnUse" x1="12" y1="-5.384209e-10" x2="12" y2="52">
			<stop  offset="0" style="stop-color:#4E8EF7"/>
			<stop  offset="0.3271" style="stop-color:#4484EE"/>
			<stop  offset="0.8824" style="stop-color:#296AD4"/>
			<stop  offset="0.8848" style="stop-color:#296AD4"/>
		</linearGradient>
		<rect id="left" clip-path="url(#SVGID_2_)" fill="url(#left_1_)" width="24" height="52"/>
	</g>
</g>
<g id="graph_1_">
	<defs>
		<path id="SVGID_3_" d="M27,51.1l17.5-9.9c1.8-1.1,3-3.1,3-5.3V16c0-2.2-1.1-4.1-3-5.1L27,0.8c-1.8-1-4.1-1-6,0L3.5,10.8
			c-1.8,1-3,3-3,5.1v20c0,2.2,1.2,4.1,3,5.1L21,51.1C22.9,52.1,25.2,52.1,27,51.1L27,51.1z"/>
	</defs>
	<clipPath id="SVGID_4_">
		<use xlink:href="#SVGID_3_"  overflow="visible"/>
	</clipPath>
	<path clip-path="url(#SVGID_4_)" fill="#FFFFFF" d="M-3.3,36.9c-1.4,0-2.8-0.8-3.3-2.3c-0.6-1.6,0.2-3.4,1.7-4.3l27.3-15.4
		c1.1-0.6,2.5-0.6,3.6,0.1l4.6,2.9c0.3,0.2,0.7,0.2,1,0l8.5-5c1.7-1,4-0.4,4.9,1.4c0.9,1.7,0.1,3.8-1.5,4.7l-10.5,6.2
		c-1.1,0.7-2.7,0.7-3.8,0l-4.6-2.8c-0.3-0.2-0.7-0.2-1,0L-1.6,36.4C-2.1,36.8-2.7,36.9-3.3,36.9z"/>
	<g id="_x3C_Path_x3E__1_" display="none" clip-path="url(#SVGID_4_)">
		
			<polyline display="inline" fill="none" stroke="#FFFFFF" stroke-width="7" stroke-linecap="round" stroke-linejoin="round" stroke-miterlimit="10" points="
			-3.4,33.4 24,18 30.9,22.2 30.9,22.2 41.7,15.9 		"/>
	</g>
</g>
<path display="none" fill="#FFFFFF" d="M12.9,37.7l0.6,0.3v0l9.7,5.4c0.1,0,0.3,0.1,0.4,0.1c0.1,0,0.2,0,0.3-0.1l9.6-5.5l0.4-0.2
	c0.2-0.1,0.3-0.3,0.3-0.6c0-0.3-0.1-0.5-0.3-0.6l-10-6c-0.2-0.1-0.5-0.1-0.7,0l-10,6c-0.2,0.1-0.7,0.3-0.7,0.6v0
	C12.5,37.4,12.7,37.6,12.9,37.7z"/>
<path id="diamond" fill="#FFFFFF" d="M35.2,37.9l-10.7,6.4c-0.3,0.2-0.7,0.2-1,0l-10.7-6.4c-0.3-0.2-0.3-0.7,0-0.9l10.7-6.4
	c0.3-0.2,0.7-0.2,1,0l10.7,6.4C35.6,37.3,35.6,37.7,35.2,37.9z"/>
</svg>
