<?xml version="1.0" encoding="UTF-8" standalone="no"?>
<svg width="96px" height="93px" viewBox="0 0 96 93" version="1.1" xmlns="http://www.w3.org/2000/svg" xmlns:xlink="http://www.w3.org/1999/xlink" xmlns:sketch="http://www.bohemiancoding.com/sketch/ns">
    <!-- Generator: Sketch 3.3.2 (12043) - http://www.bohemiancoding.com/sketch -->
    <title>star</title>
    <defs></defs>
    <g id="star" stroke="none" stroke-width="1" fill="none" fill-rule="evenodd" sketch:type="MSPage">
        <g id="g219" sketch:type="MSLayerGroup" transform="translate(-1.000000, 0.000000)" fill="#296AD4">
            <path d="M53.57,3.382 L64.384,25.294 C65.136,26.818 66.59,27.874 68.272,28.118 L92.454,31.632 C96.69,32.248 98.38,37.452 95.316,40.44 L77.818,57.496 C76.6,58.682 76.046,60.392 76.332,62.066 L80.464,86.15 C81.186,90.368 76.76,93.584 72.972,91.592 L51.344,80.222 C49.838,79.432 48.042,79.432 46.538,80.222 L24.908,91.592 C21.122,93.584 16.694,90.368 17.418,86.15 L21.548,62.066 C21.836,60.392 21.28,58.682 20.062,57.496 L2.564,40.44 C-0.5,37.452 1.192,32.248 5.426,31.632 L29.608,28.118 C31.29,27.874 32.744,26.818 33.496,25.294 L44.31,3.382 C46.204,-0.456 51.676,-0.456 53.57,3.382" id="Fill-1011" sketch:type="MSShapeGroup"></path>
        </g>
    </g>
</svg>
