<?xml version="1.0" encoding="utf-8"?>
<!-- Generator: Adobe Illustrator 18.1.1, SVG Export Plug-In . SVG Version: 6.00 Build 0)  -->
<svg version="1.1" id="star" xmlns:sketch="http://www.bohemiancoding.com/sketch/ns"
	 xmlns="http://www.w3.org/2000/svg" xmlns:xlink="http://www.w3.org/1999/xlink" x="0px" y="0px" viewBox="-257 350 96 93"
	 enable-background="new -257 350 96 93" xml:space="preserve">
<path id="fill" sketch:type="MSShapeGroup" fill="#296AD4" d="M-204.4,353.4l10.8,21.9c0.8,1.5,2.2,2.6,3.9,2.8l24.2,3.5
	c4.2,0.6,5.9,5.8,2.9,8.8l-17.5,17.1c-1.2,1.2-1.8,2.9-1.5,4.6l4.1,24.1c0.7,4.2-3.7,7.4-7.5,5.4l-21.6-11.4c-1.5-0.8-3.3-0.8-4.8,0
	l-21.6,11.4c-3.8,2-8.2-1.2-7.5-5.4l4.1-24.1c0.3-1.7-0.3-3.4-1.5-4.6l-17.5-17.1c-3.1-3-1.4-8.2,2.9-8.8l24.2-3.5
	c1.7-0.2,3.1-1.3,3.9-2.8l10.8-21.9C-211.8,349.5-206.3,349.5-204.4,353.4"/>
<path id="fill_2_" sketch:type="MSShapeGroup" fill="#FFFFFF" stroke="#296AD4" stroke-miterlimit="10" d="M-204.1,354.2l10.6,21.5
	c0.7,1.5,2.2,2.5,3.8,2.8l23.7,3.4c4.2,0.6,5.8,5.7,2.8,8.6l-17.2,16.7c-1.2,1.2-1.7,2.8-1.5,4.5l4.1,23.6c0.7,4.1-3.6,7.3-7.3,5.3
	l-21.2-11.1c-0.7-0.4-1.5-0.6-2.4-0.6l0-77.6C-206.8,351.4-205,352.3-204.1,354.2"/>
</svg>
