<?xml version="1.0" encoding="UTF-8" standalone="no"?>
<svg width="119px" height="108px" viewBox="0 0 119 108" version="1.1" xmlns="http://www.w3.org/2000/svg" xmlns:xlink="http://www.w3.org/1999/xlink" xmlns:sketch="http://www.bohemiancoding.com/sketch/ns">
    <!-- Generator: Sketch 3.3.2 (12043) - http://www.bohemiancoding.com/sketch -->
    <title>m113</title>
    <desc>Created with Sketch.</desc>
    <defs></defs>
    <g id="Page-1" stroke="none" stroke-width="1" fill="none" fill-rule="evenodd" sketch:type="MSPage">
        <g id="m113" sketch:type="MSLayerGroup" transform="translate(2.000000, 2.000000)">
            <path d="M0,0 L112,0 L112,88 L0,88 L0,0 Z" id="Fill-229" fill="#8697CB" sketch:type="MSShapeGroup"></path>
            <path d="M0,0 L112,0 L112,88 L0,88 L0,0 Z" id="Stroke-230" stroke="#535D73" stroke-width="4" sketch:type="MSShapeGroup"></path>
            <path d="M48,58 L48,30 L70,44 L48,58" id="Fill-231" fill="#FFFFFF" sketch:type="MSShapeGroup"></path>
            <path d="M0,0 L20,0 L20,22 L0,22 L0,0 Z" id="Fill-232" fill="#687492" sketch:type="MSShapeGroup"></path>
            <path d="M0,0 L20,0 L20,22 L0,22 L0,0 Z" id="Stroke-233" stroke="#535D73" stroke-width="4" sketch:type="MSShapeGroup"></path>
            <path d="M0,22 L20,22 L20,44 L0,44 L0,22 Z" id="Fill-234" fill="#687492" sketch:type="MSShapeGroup"></path>
            <path d="M0,22 L20,22 L20,44 L0,44 L0,22 Z" id="Stroke-235" stroke="#535D73" stroke-width="4" sketch:type="MSShapeGroup"></path>
            <path d="M0,44 L20,44 L20,66 L0,66 L0,44 Z" id="Fill-236" fill="#687492" sketch:type="MSShapeGroup"></path>
            <path d="M0,44 L20,44 L20,66 L0,66 L0,44 Z" id="Stroke-237" stroke="#535D73" stroke-width="4" sketch:type="MSShapeGroup"></path>
            <path d="M0,66 L20,66 L20,88 L0,88 L0,66 Z" id="Fill-238" fill="#687492" sketch:type="MSShapeGroup"></path>
            <path d="M0,66 L20,66 L20,88 L0,88 L0,66 Z" id="Stroke-239" stroke="#535D73" stroke-width="4" sketch:type="MSShapeGroup"></path>
            <path d="M92,0 L112,0 L112,22 L92,22 L92,0 Z" id="Fill-240" fill="#687492" sketch:type="MSShapeGroup"></path>
            <path d="M92,0 L112,0 L112,22 L92,22 L92,0 Z" id="Stroke-241" stroke="#535D73" stroke-width="4" sketch:type="MSShapeGroup"></path>
            <path d="M92,22 L112,22 L112,44 L92,44 L92,22 Z" id="Fill-242" fill="#687492" sketch:type="MSShapeGroup"></path>
            <path d="M92,22 L112,22 L112,44 L92,44 L92,22 Z" id="Stroke-243" stroke="#535D73" stroke-width="4" sketch:type="MSShapeGroup"></path>
            <path d="M92,44 L112,44 L112,66 L92,66 L92,44 Z" id="Fill-244" fill="#687492" sketch:type="MSShapeGroup"></path>
            <path d="M92,44 L112,44 L112,66 L92,66 L92,44 Z" id="Stroke-245" stroke="#535D73" stroke-width="4" sketch:type="MSShapeGroup"></path>
            <path d="M92,66 L112,66 L112,88 L92,88 L92,66 Z" id="Fill-246" fill="#687492" sketch:type="MSShapeGroup"></path>
            <path d="M92,66 L112,66 L112,88 L92,88 L92,66 Z" id="Stroke-247" stroke="#535D73" stroke-width="4" sketch:type="MSShapeGroup"></path>
            <path d="M73.672,86.978 L73.656,86.992 L69.68,101.572 L78.974,92.28 L73.672,86.978" id="Fill-2069" fill="#EDDCC7" sketch:type="MSShapeGroup"></path>
            <path d="M112.172,59.082 L109.678,56.586 C108.126,55.036 105.614,55.036 104.062,56.586 L96.9,63.75 L102.202,69.052 L112.172,59.082" id="Fill-2070" fill="#D85A4A" sketch:type="MSShapeGroup"></path>
            <path d="M102.202,69.052 L96.9,63.75 L73.672,86.978 L78.974,92.28 L102.202,69.052" id="Fill-2071" fill="#F29C21" sketch:type="MSShapeGroup"></path>
            <path d="M84.97,98.306 L84.986,98.292 L78.974,92.28 L69.68,101.572 L69.414,102.548 L84.97,98.306" id="Fill-2072" fill="#D6C4B1" sketch:type="MSShapeGroup"></path>
            <path d="M108.214,75.064 L115.376,67.9 C116.926,66.35 116.926,63.836 115.376,62.286 L112.172,59.082 L102.202,69.052 L108.214,75.064" id="Fill-2073" fill="#A34740" sketch:type="MSShapeGroup"></path>
            <path d="M78.974,92.28 L84.986,98.292 L108.214,75.064 L102.202,69.052 L78.974,92.28" id="Fill-2074" fill="#E18C25" sketch:type="MSShapeGroup"></path>
            <path d="M68,105.964 C67.488,105.964 66.976,105.768 66.586,105.378 C65.804,104.596 65.804,103.33 66.586,102.548 L71,98.136 C71.782,97.354 73.046,97.354 73.828,98.136 C74.61,98.916 74.61,100.182 73.828,100.964 L69.414,105.378 C69.024,105.768 68.512,105.964 68,105.964" id="Fill-2075" fill="#5E5E5E" sketch:type="MSShapeGroup"></path>
        </g>
    </g>
</svg>